<svg width="33" height="33" viewBox="0 0 33 33" fill="none" xmlns="http://www.w3.org/2000/svg">
<circle cx="16.4268" cy="16.0085" r="16" fill="white"/>
<path d="M14.9267 21.0085C14.7951 21.0092 14.6646 20.984 14.5428 20.9342C14.421 20.8845 14.3101 20.8112 14.2167 20.7185C14.123 20.6255 14.0486 20.5149 13.9978 20.3931C13.947 20.2712 13.9209 20.1405 13.9209 20.0085C13.9209 19.8765 13.947 19.7458 13.9978 19.6239C14.0486 19.502 14.123 19.3914 14.2167 19.2985L17.5267 16.0085L14.3467 12.6985C14.1604 12.5111 14.0559 12.2577 14.0559 11.9935C14.0559 11.7293 14.1604 11.4758 14.3467 11.2885C14.4397 11.1947 14.5503 11.1204 14.6721 11.0696C14.794 11.0188 14.9247 10.9927 15.0567 10.9927C15.1887 10.9927 15.3194 11.0188 15.4413 11.0696C15.5631 11.1204 15.6737 11.1947 15.7667 11.2885L19.6267 15.2885C19.8099 15.4754 19.9126 15.7267 19.9126 15.9885C19.9126 16.2502 19.8099 16.5015 19.6267 16.6885L15.6267 20.6885C15.5369 20.7854 15.4289 20.8636 15.3087 20.9185C15.1886 20.9734 15.0587 21.004 14.9267 21.0085Z" fill="#6780B3"/>
</svg>
