<svg width="33" height="33" viewBox="0 0 33 33" fill="none" xmlns="http://www.w3.org/2000/svg">
<circle cx="16.4268" cy="16.0085" r="16" transform="rotate(-180 16.4268 16.0085)" fill="white"/>
<path d="M17.9268 11.0086C18.0584 11.0078 18.1889 11.033 18.3107 11.0828C18.4326 11.1325 18.5434 11.2059 18.6368 11.2986C18.7305 11.3915 18.8049 11.5021 18.8557 11.624C18.9065 11.7458 18.9326 11.8765 18.9326 12.0086C18.9326 12.1406 18.9065 12.2713 18.8557 12.3931C18.8049 12.515 18.7305 12.6256 18.6368 12.7186L15.3268 16.0086L18.5068 19.3186C18.6931 19.5059 18.7976 19.7594 18.7976 20.0236C18.7976 20.2877 18.6931 20.5412 18.5068 20.7286C18.4139 20.8223 18.3033 20.8967 18.1814 20.9474C18.0595 20.9982 17.9288 21.0244 17.7968 21.0244C17.6648 21.0244 17.5341 20.9982 17.4122 20.9474C17.2904 20.8967 17.1798 20.8223 17.0868 20.7286L13.2268 16.7286C13.0436 16.5416 12.941 16.2903 12.941 16.0286C12.941 15.7668 13.0436 15.5155 13.2268 15.3286L17.2268 11.3286C17.3166 11.2316 17.4247 11.1534 17.5448 11.0985C17.6649 11.0436 17.7948 11.013 17.9268 11.0086Z" fill="#6780B3"/>
</svg>
