<svg width="1920" height="2364" viewBox="0 0 1920 2364" fill="none" xmlns="http://www.w3.org/2000/svg">
<g clip-path="url(#clip0_152_193)">
<rect width="1920" height="2364" fill="url(#paint0_linear_152_193)"/>
<g opacity="0.4">
<g filter="url(#filter0_f_152_193)">
<ellipse rx="278.059" ry="158.09" transform="matrix(0.992594 -0.121476 0.133619 0.991033 1804.13 672.796)" fill="#FFE198"/>
</g>
<g filter="url(#filter1_f_152_193)">
<ellipse rx="135.118" ry="182.677" transform="matrix(0.979823 0.199866 -0.219257 0.975667 1516.45 681.238)" fill="#FF3278"/>
</g>
<g filter="url(#filter2_f_152_193)">
<ellipse rx="121.367" ry="23.5099" transform="matrix(0.867735 -0.497028 0.533664 0.845696 1568.32 896.544)" fill="#D015FF"/>
</g>
<g filter="url(#filter3_f_152_193)">
<ellipse rx="55.281" ry="109.896" transform="matrix(0.670771 0.741665 -0.772915 0.63451 1682.34 925.271)" fill="#5D85FF"/>
</g>
<g filter="url(#filter4_f_152_193)">
<ellipse rx="127.504" ry="95.6337" transform="matrix(0.967992 -0.25098 0.274661 0.961541 1800.95 867.281)" fill="#82FFF9"/>
</g>
<g filter="url(#filter5_f_152_193)">
<ellipse cx="2017.11" cy="862.377" rx="132.886" ry="126.605" fill="#7F9FFF"/>
</g>
</g>
<g opacity="0.4">
<g filter="url(#filter6_f_152_193)">
<ellipse rx="278.059" ry="158.09" transform="matrix(0.992594 -0.121476 0.133619 0.991033 391.132 1417.8)" fill="#FFE198"/>
</g>
<g filter="url(#filter7_f_152_193)">
<ellipse rx="135.118" ry="182.677" transform="matrix(0.979823 0.199866 -0.219257 0.975667 103.445 1426.24)" fill="#FF3278"/>
</g>
<g filter="url(#filter8_f_152_193)">
<ellipse rx="121.367" ry="23.5099" transform="matrix(0.867735 -0.497028 0.533664 0.845696 155.321 1641.54)" fill="#D015FF"/>
</g>
<g filter="url(#filter9_f_152_193)">
<ellipse rx="55.281" ry="109.896" transform="matrix(0.670771 0.741665 -0.772915 0.63451 269.339 1670.27)" fill="#5D85FF"/>
</g>
<g filter="url(#filter10_f_152_193)">
<ellipse rx="127.504" ry="95.6337" transform="matrix(0.967992 -0.25098 0.274661 0.961541 387.95 1612.28)" fill="#82FFF9"/>
</g>
<g filter="url(#filter11_f_152_193)">
<path d="M541.424 1471.5C541.424 1541.42 481.929 1598.1 408.538 1598.1C335.147 1598.1 275.651 1541.42 275.651 1471.5C275.651 1401.58 335.147 1344.9 408.538 1344.9C481.929 1344.9 541.424 1401.58 541.424 1471.5Z" fill="#7F9FFF"/>
</g>
</g>
<g opacity="0.4">
<g filter="url(#filter12_f_152_193)">
<ellipse rx="102.666" ry="156.848" transform="matrix(0.944328 -0.329005 0.0473079 0.99888 1799.63 1248.8)" fill="#FFE198"/>
</g>
<g filter="url(#filter13_f_152_193)">
<ellipse rx="53.7775" ry="178.787" transform="matrix(0.864769 0.502171 -0.0786939 0.996899 1698.57 1257.24)" fill="#FF3278"/>
</g>
<g filter="url(#filter14_f_152_193)">
<ellipse rx="70.7627" ry="20.3649" transform="matrix(0.522784 -0.852465 0.21641 0.976303 1716.8 1472.54)" fill="#D015FF"/>
</g>
<g filter="url(#filter15_f_152_193)">
<ellipse rx="43.0193" ry="75.8452" transform="matrix(0.302779 0.953061 -0.39339 0.919372 1756.85 1501.27)" fill="#5D85FF"/>
</g>
<g filter="url(#filter16_f_152_193)">
<ellipse rx="53.8858" ry="92.4175" transform="matrix(0.804563 -0.593867 0.0998374 0.995004 1798.51 1443.28)" fill="#82FFF9"/>
</g>
<g filter="url(#filter17_f_152_193)">
<path d="M1852.42 1302.5C1852.42 1372.42 1831.52 1429.1 1805.74 1429.1C1779.96 1429.1 1759.07 1372.42 1759.07 1302.5C1759.07 1232.58 1779.96 1175.9 1805.74 1175.9C1831.52 1175.9 1852.42 1232.58 1852.42 1302.5Z" fill="#7F9FFF"/>
</g>
</g>
<g opacity="0.4">
<g filter="url(#filter18_f_152_193)">
<ellipse rx="108.19" ry="156.87" transform="matrix(0.950014 -0.312207 0.0501465 0.998742 1809.35 1137.8)" fill="#FFE198"/>
</g>
<g filter="url(#filter19_f_152_193)">
<ellipse rx="56.2141" ry="178.855" transform="matrix(0.877047 0.480404 -0.0833954 0.996517 1702.22 1146.24)" fill="#FF3278"/>
</g>
<g filter="url(#filter20_f_152_193)">
<ellipse rx="71.951" ry="20.4239" transform="matrix(0.545077 -0.838386 0.228764 0.973482 1721.54 1361.54)" fill="#D015FF"/>
</g>
<g filter="url(#filter21_f_152_193)">
<ellipse rx="43.2629" ry="76.5689" transform="matrix(0.319184 0.947693 -0.413111 0.910681 1764 1390.27)" fill="#5D85FF"/>
</g>
<g filter="url(#filter22_f_152_193)">
<ellipse rx="56.0054" ry="92.4745" transform="matrix(0.820678 -0.571392 0.105777 0.99439 1808.17 1332.28)" fill="#82FFF9"/>
</g>
<g filter="url(#filter23_f_152_193)">
<path d="M1865.32 1191.5C1865.32 1261.42 1843.16 1318.1 1815.83 1318.1C1788.5 1318.1 1766.35 1261.42 1766.35 1191.5C1766.35 1121.58 1788.5 1064.9 1815.83 1064.9C1843.16 1064.9 1865.32 1121.58 1865.32 1191.5Z" fill="#7F9FFF"/>
</g>
</g>
<g opacity="0.4">
<g filter="url(#filter24_f_152_193)">
<ellipse rx="278.059" ry="158.09" transform="matrix(0.992594 -0.121476 0.133619 0.991033 460.132 1082.8)" fill="#FFE198"/>
</g>
<g filter="url(#filter25_f_152_193)">
<ellipse rx="135.118" ry="182.677" transform="matrix(0.979823 0.199866 -0.219257 0.975667 172.445 1091.24)" fill="#FF3278"/>
</g>
<g filter="url(#filter26_f_152_193)">
<ellipse rx="121.367" ry="23.5099" transform="matrix(0.867735 -0.497028 0.533664 0.845696 224.321 1306.54)" fill="#D015FF"/>
</g>
<g filter="url(#filter27_f_152_193)">
<ellipse rx="55.281" ry="109.896" transform="matrix(0.670771 0.741665 -0.772915 0.63451 338.339 1335.27)" fill="#5D85FF"/>
</g>
<g filter="url(#filter28_f_152_193)">
<ellipse rx="127.504" ry="95.6337" transform="matrix(0.967992 -0.25098 0.274661 0.961541 456.95 1277.28)" fill="#82FFF9"/>
</g>
<g filter="url(#filter29_f_152_193)">
<path d="M610.424 1136.5C610.424 1206.42 550.929 1263.1 477.538 1263.1C404.147 1263.1 344.651 1206.42 344.651 1136.5C344.651 1066.58 404.147 1009.9 477.538 1009.9C550.929 1009.9 610.424 1066.58 610.424 1136.5Z" fill="#7F9FFF"/>
</g>
</g>
<g opacity="0.4">
<g filter="url(#filter30_f_152_193)">
<path d="M259.568 39.6535C323.366 25.5118 357.657 -8.2659 422.459 1.86565C572.477 25.3207 553.068 272.624 422.459 340.881C343.872 381.951 271.683 372.711 187.607 340.881C105.58 309.828 73.7955 282.687 28.4271 215.698C11.9318 191.342 -7.38085 145.636 2.85943 112.901C14.5386 75.566 47.8589 58.2322 91.5217 50.5779C136.471 42.698 180.39 57.2042 259.568 39.6535Z" fill="#04E1FF"/>
</g>
<g filter="url(#filter31_f_152_193)">
<path d="M297.98 86.7746C352.636 74.6559 382.014 45.7103 437.53 54.3925C566.053 74.4922 549.425 286.418 437.53 344.911C370.204 380.105 308.359 372.187 236.33 344.911C166.056 318.299 138.826 295.041 99.9589 237.635C85.8271 216.763 69.2817 177.596 78.0547 149.544C88.0603 117.55 116.606 102.696 154.013 96.1362C192.522 89.3836 230.147 101.815 297.98 86.7746Z" fill="#6100FF"/>
</g>
<g filter="url(#filter32_f_152_193)">
<ellipse rx="193.222" ry="118.932" transform="matrix(0.944023 0.329879 -0.420116 0.90747 372.628 245.333)" fill="#D96CFF" fill-opacity="0.23"/>
</g>
</g>
<g opacity="0.4">
<g filter="url(#filter33_f_152_193)">
<ellipse rx="278.059" ry="158.09" transform="matrix(0.992594 -0.121476 0.133619 0.991033 1858.13 2007.8)" fill="#FFE198"/>
</g>
<g filter="url(#filter34_f_152_193)">
<ellipse rx="135.118" ry="182.677" transform="matrix(0.979823 0.199866 -0.219257 0.975667 1570.45 2016.24)" fill="#FF3278"/>
</g>
<g filter="url(#filter35_f_152_193)">
<ellipse rx="121.367" ry="23.5099" transform="matrix(0.867735 -0.497028 0.533664 0.845697 1622.32 2231.54)" fill="#D015FF"/>
</g>
<g filter="url(#filter36_f_152_193)">
<ellipse rx="55.281" ry="109.896" transform="matrix(0.670771 0.741665 -0.772915 0.63451 1736.34 2260.27)" fill="#5D85FF"/>
</g>
<g filter="url(#filter37_f_152_193)">
<ellipse rx="127.504" ry="95.6337" transform="matrix(0.967992 -0.250981 0.274661 0.961541 1854.95 2202.28)" fill="#82FFF9"/>
</g>
<g filter="url(#filter38_f_152_193)">
<ellipse cx="2071.11" cy="2197.38" rx="132.886" ry="126.605" fill="#7F9FFF"/>
</g>
</g>
<g opacity="0.4">
<g filter="url(#filter39_f_152_193)">
<ellipse rx="278.059" ry="158.09" transform="matrix(0.121476 0.992594 -0.991033 0.133619 659.205 2390.13)" fill="#FFE198"/>
</g>
<g filter="url(#filter40_f_152_193)">
<ellipse rx="135.118" ry="182.677" transform="matrix(-0.199866 0.979823 -0.975667 -0.219256 650.763 2102.45)" fill="#FF3278"/>
</g>
<g filter="url(#filter41_f_152_193)">
<ellipse rx="121.367" ry="23.5099" transform="matrix(0.497028 0.867735 -0.845696 0.533664 435.457 2154.32)" fill="#D015FF"/>
</g>
<g filter="url(#filter42_f_152_193)">
<ellipse rx="55.281" ry="109.896" transform="matrix(-0.741665 0.670771 -0.63451 -0.772915 406.73 2268.34)" fill="#5D85FF"/>
</g>
<g filter="url(#filter43_f_152_193)">
<ellipse rx="127.504" ry="95.6337" transform="matrix(0.250981 0.967992 -0.961541 0.274661 464.72 2386.95)" fill="#82FFF9"/>
</g>
<g filter="url(#filter44_f_152_193)">
<ellipse cx="469.623" cy="2603.11" rx="132.886" ry="126.605" transform="rotate(90 469.623 2603.11)" fill="#7F9FFF"/>
</g>
</g>
</g>
<defs>
<filter id="filter0_f_152_193" x="1127.31" y="112.49" width="1353.64" height="1120.61" filterUnits="userSpaceOnUse" color-interpolation-filters="sRGB">
<feFlood flood-opacity="0" result="BackgroundImageFix"/>
<feBlend mode="normal" in="SourceGraphic" in2="BackgroundImageFix" result="shape"/>
<feGaussianBlur stdDeviation="200" result="effect1_foregroundBlur_152_193"/>
</filter>
<filter id="filter1_f_152_193" x="978.09" y="100.946" width="1076.71" height="1160.58" filterUnits="userSpaceOnUse" color-interpolation-filters="sRGB">
<feFlood flood-opacity="0" result="BackgroundImageFix"/>
<feBlend mode="normal" in="SourceGraphic" in2="BackgroundImageFix" result="shape"/>
<feGaussianBlur stdDeviation="200" result="effect1_foregroundBlur_152_193"/>
</filter>
<filter id="filter2_f_152_193" x="1162.25" y="533.012" width="812.139" height="727.064" filterUnits="userSpaceOnUse" color-interpolation-filters="sRGB">
<feFlood flood-opacity="0" result="BackgroundImageFix"/>
<feBlend mode="normal" in="SourceGraphic" in2="BackgroundImageFix" result="shape"/>
<feGaussianBlur stdDeviation="150" result="effect1_foregroundBlur_152_193"/>
</filter>
<filter id="filter3_f_152_193" x="1389.63" y="644.367" width="585.41" height="561.807" filterUnits="userSpaceOnUse" color-interpolation-filters="sRGB">
<feFlood flood-opacity="0" result="BackgroundImageFix"/>
<feBlend mode="normal" in="SourceGraphic" in2="BackgroundImageFix" result="shape"/>
<feGaussianBlur stdDeviation="100" result="effect1_foregroundBlur_152_193"/>
</filter>
<filter id="filter4_f_152_193" x="1374.74" y="469.889" width="852.425" height="794.783" filterUnits="userSpaceOnUse" color-interpolation-filters="sRGB">
<feFlood flood-opacity="0" result="BackgroundImageFix"/>
<feBlend mode="normal" in="SourceGraphic" in2="BackgroundImageFix" result="shape"/>
<feGaussianBlur stdDeviation="150" result="effect1_foregroundBlur_152_193"/>
</filter>
<filter id="filter5_f_152_193" x="1484.23" y="335.772" width="1065.77" height="1053.21" filterUnits="userSpaceOnUse" color-interpolation-filters="sRGB">
<feFlood flood-opacity="0" result="BackgroundImageFix"/>
<feBlend mode="normal" in="SourceGraphic" in2="BackgroundImageFix" result="shape"/>
<feGaussianBlur stdDeviation="200" result="effect1_foregroundBlur_152_193"/>
</filter>
<filter id="filter6_f_152_193" x="-285.688" y="857.49" width="1353.64" height="1120.61" filterUnits="userSpaceOnUse" color-interpolation-filters="sRGB">
<feFlood flood-opacity="0" result="BackgroundImageFix"/>
<feBlend mode="normal" in="SourceGraphic" in2="BackgroundImageFix" result="shape"/>
<feGaussianBlur stdDeviation="200" result="effect1_foregroundBlur_152_193"/>
</filter>
<filter id="filter7_f_152_193" x="-434.91" y="845.946" width="1076.71" height="1160.58" filterUnits="userSpaceOnUse" color-interpolation-filters="sRGB">
<feFlood flood-opacity="0" result="BackgroundImageFix"/>
<feBlend mode="normal" in="SourceGraphic" in2="BackgroundImageFix" result="shape"/>
<feGaussianBlur stdDeviation="200" result="effect1_foregroundBlur_152_193"/>
</filter>
<filter id="filter8_f_152_193" x="-250.749" y="1278.01" width="812.139" height="727.064" filterUnits="userSpaceOnUse" color-interpolation-filters="sRGB">
<feFlood flood-opacity="0" result="BackgroundImageFix"/>
<feBlend mode="normal" in="SourceGraphic" in2="BackgroundImageFix" result="shape"/>
<feGaussianBlur stdDeviation="150" result="effect1_foregroundBlur_152_193"/>
</filter>
<filter id="filter9_f_152_193" x="-23.3657" y="1389.37" width="585.409" height="561.807" filterUnits="userSpaceOnUse" color-interpolation-filters="sRGB">
<feFlood flood-opacity="0" result="BackgroundImageFix"/>
<feBlend mode="normal" in="SourceGraphic" in2="BackgroundImageFix" result="shape"/>
<feGaussianBlur stdDeviation="100" result="effect1_foregroundBlur_152_193"/>
</filter>
<filter id="filter10_f_152_193" x="-38.2622" y="1214.89" width="852.425" height="794.783" filterUnits="userSpaceOnUse" color-interpolation-filters="sRGB">
<feFlood flood-opacity="0" result="BackgroundImageFix"/>
<feBlend mode="normal" in="SourceGraphic" in2="BackgroundImageFix" result="shape"/>
<feGaussianBlur stdDeviation="150" result="effect1_foregroundBlur_152_193"/>
</filter>
<filter id="filter11_f_152_193" x="-124.349" y="944.895" width="1065.77" height="1053.21" filterUnits="userSpaceOnUse" color-interpolation-filters="sRGB">
<feFlood flood-opacity="0" result="BackgroundImageFix"/>
<feBlend mode="normal" in="SourceGraphic" in2="BackgroundImageFix" result="shape"/>
<feGaussianBlur stdDeviation="200" result="effect1_foregroundBlur_152_193"/>
</filter>
<filter id="filter12_f_152_193" x="1302.39" y="688.49" width="994.477" height="1120.61" filterUnits="userSpaceOnUse" color-interpolation-filters="sRGB">
<feFlood flood-opacity="0" result="BackgroundImageFix"/>
<feBlend mode="normal" in="SourceGraphic" in2="BackgroundImageFix" result="shape"/>
<feGaussianBlur stdDeviation="200" result="effect1_foregroundBlur_152_193"/>
</filter>
<filter id="filter13_f_152_193" x="1249.97" y="676.946" width="897.199" height="1160.58" filterUnits="userSpaceOnUse" color-interpolation-filters="sRGB">
<feFlood flood-opacity="0" result="BackgroundImageFix"/>
<feBlend mode="normal" in="SourceGraphic" in2="BackgroundImageFix" result="shape"/>
<feGaussianBlur stdDeviation="200" result="effect1_foregroundBlur_152_193"/>
</filter>
<filter id="filter14_f_152_193" x="1379.54" y="1109.01" width="674.518" height="727.064" filterUnits="userSpaceOnUse" color-interpolation-filters="sRGB">
<feFlood flood-opacity="0" result="BackgroundImageFix"/>
<feBlend mode="normal" in="SourceGraphic" in2="BackgroundImageFix" result="shape"/>
<feGaussianBlur stdDeviation="150" result="effect1_foregroundBlur_152_193"/>
</filter>
<filter id="filter15_f_152_193" x="1524.28" y="1220.37" width="465.128" height="561.807" filterUnits="userSpaceOnUse" color-interpolation-filters="sRGB">
<feFlood flood-opacity="0" result="BackgroundImageFix"/>
<feBlend mode="normal" in="SourceGraphic" in2="BackgroundImageFix" result="shape"/>
<feGaussianBlur stdDeviation="100" result="effect1_foregroundBlur_152_193"/>
</filter>
<filter id="filter16_f_152_193" x="1454.18" y="1045.89" width="688.669" height="794.783" filterUnits="userSpaceOnUse" color-interpolation-filters="sRGB">
<feFlood flood-opacity="0" result="BackgroundImageFix"/>
<feBlend mode="normal" in="SourceGraphic" in2="BackgroundImageFix" result="shape"/>
<feGaussianBlur stdDeviation="150" result="effect1_foregroundBlur_152_193"/>
</filter>
<filter id="filter17_f_152_193" x="1359.07" y="775.895" width="893.357" height="1053.21" filterUnits="userSpaceOnUse" color-interpolation-filters="sRGB">
<feFlood flood-opacity="0" result="BackgroundImageFix"/>
<feBlend mode="normal" in="SourceGraphic" in2="BackgroundImageFix" result="shape"/>
<feGaussianBlur stdDeviation="200" result="effect1_foregroundBlur_152_193"/>
</filter>
<filter id="filter18_f_152_193" x="1306.27" y="577.49" width="1006.17" height="1120.61" filterUnits="userSpaceOnUse" color-interpolation-filters="sRGB">
<feFlood flood-opacity="0" result="BackgroundImageFix"/>
<feBlend mode="normal" in="SourceGraphic" in2="BackgroundImageFix" result="shape"/>
<feGaussianBlur stdDeviation="200" result="effect1_foregroundBlur_152_193"/>
</filter>
<filter id="filter19_f_152_193" x="1250.7" y="565.946" width="903.046" height="1160.58" filterUnits="userSpaceOnUse" color-interpolation-filters="sRGB">
<feFlood flood-opacity="0" result="BackgroundImageFix"/>
<feBlend mode="normal" in="SourceGraphic" in2="BackgroundImageFix" result="shape"/>
<feGaussianBlur stdDeviation="200" result="effect1_foregroundBlur_152_193"/>
</filter>
<filter id="filter20_f_152_193" x="1382.04" y="998.012" width="679" height="727.064" filterUnits="userSpaceOnUse" color-interpolation-filters="sRGB">
<feFlood flood-opacity="0" result="BackgroundImageFix"/>
<feBlend mode="normal" in="SourceGraphic" in2="BackgroundImageFix" result="shape"/>
<feGaussianBlur stdDeviation="150" result="effect1_foregroundBlur_152_193"/>
</filter>
<filter id="filter21_f_152_193" x="1529.47" y="1109.37" width="469.046" height="561.807" filterUnits="userSpaceOnUse" color-interpolation-filters="sRGB">
<feFlood flood-opacity="0" result="BackgroundImageFix"/>
<feBlend mode="normal" in="SourceGraphic" in2="BackgroundImageFix" result="shape"/>
<feGaussianBlur stdDeviation="100" result="effect1_foregroundBlur_152_193"/>
</filter>
<filter id="filter22_f_152_193" x="1461.17" y="934.89" width="694.003" height="794.783" filterUnits="userSpaceOnUse" color-interpolation-filters="sRGB">
<feFlood flood-opacity="0" result="BackgroundImageFix"/>
<feBlend mode="normal" in="SourceGraphic" in2="BackgroundImageFix" result="shape"/>
<feGaussianBlur stdDeviation="150" result="effect1_foregroundBlur_152_193"/>
</filter>
<filter id="filter23_f_152_193" x="1366.35" y="664.895" width="898.973" height="1053.21" filterUnits="userSpaceOnUse" color-interpolation-filters="sRGB">
<feFlood flood-opacity="0" result="BackgroundImageFix"/>
<feBlend mode="normal" in="SourceGraphic" in2="BackgroundImageFix" result="shape"/>
<feGaussianBlur stdDeviation="200" result="effect1_foregroundBlur_152_193"/>
</filter>
<filter id="filter24_f_152_193" x="-216.688" y="522.49" width="1353.64" height="1120.61" filterUnits="userSpaceOnUse" color-interpolation-filters="sRGB">
<feFlood flood-opacity="0" result="BackgroundImageFix"/>
<feBlend mode="normal" in="SourceGraphic" in2="BackgroundImageFix" result="shape"/>
<feGaussianBlur stdDeviation="200" result="effect1_foregroundBlur_152_193"/>
</filter>
<filter id="filter25_f_152_193" x="-365.91" y="510.946" width="1076.71" height="1160.58" filterUnits="userSpaceOnUse" color-interpolation-filters="sRGB">
<feFlood flood-opacity="0" result="BackgroundImageFix"/>
<feBlend mode="normal" in="SourceGraphic" in2="BackgroundImageFix" result="shape"/>
<feGaussianBlur stdDeviation="200" result="effect1_foregroundBlur_152_193"/>
</filter>
<filter id="filter26_f_152_193" x="-181.749" y="943.012" width="812.139" height="727.064" filterUnits="userSpaceOnUse" color-interpolation-filters="sRGB">
<feFlood flood-opacity="0" result="BackgroundImageFix"/>
<feBlend mode="normal" in="SourceGraphic" in2="BackgroundImageFix" result="shape"/>
<feGaussianBlur stdDeviation="150" result="effect1_foregroundBlur_152_193"/>
</filter>
<filter id="filter27_f_152_193" x="45.6343" y="1054.37" width="585.409" height="561.807" filterUnits="userSpaceOnUse" color-interpolation-filters="sRGB">
<feFlood flood-opacity="0" result="BackgroundImageFix"/>
<feBlend mode="normal" in="SourceGraphic" in2="BackgroundImageFix" result="shape"/>
<feGaussianBlur stdDeviation="100" result="effect1_foregroundBlur_152_193"/>
</filter>
<filter id="filter28_f_152_193" x="30.7378" y="879.89" width="852.425" height="794.783" filterUnits="userSpaceOnUse" color-interpolation-filters="sRGB">
<feFlood flood-opacity="0" result="BackgroundImageFix"/>
<feBlend mode="normal" in="SourceGraphic" in2="BackgroundImageFix" result="shape"/>
<feGaussianBlur stdDeviation="150" result="effect1_foregroundBlur_152_193"/>
</filter>
<filter id="filter29_f_152_193" x="-55.3486" y="609.895" width="1065.77" height="1053.21" filterUnits="userSpaceOnUse" color-interpolation-filters="sRGB">
<feFlood flood-opacity="0" result="BackgroundImageFix"/>
<feBlend mode="normal" in="SourceGraphic" in2="BackgroundImageFix" result="shape"/>
<feGaussianBlur stdDeviation="200" result="effect1_foregroundBlur_152_193"/>
</filter>
<filter id="filter30_f_152_193" x="-600" y="-600" width="1727.82" height="1568.33" filterUnits="userSpaceOnUse" color-interpolation-filters="sRGB">
<feFlood flood-opacity="0" result="BackgroundImageFix"/>
<feBlend mode="normal" in="SourceGraphic" in2="BackgroundImageFix" result="shape"/>
<feGaussianBlur stdDeviation="300" result="effect1_foregroundBlur_152_193"/>
</filter>
<filter id="filter31_f_152_193" x="-324.395" y="-347.206" width="1252.19" height="1115.64" filterUnits="userSpaceOnUse" color-interpolation-filters="sRGB">
<feFlood flood-opacity="0" result="BackgroundImageFix"/>
<feBlend mode="normal" in="SourceGraphic" in2="BackgroundImageFix" result="shape"/>
<feGaussianBlur stdDeviation="200" result="effect1_foregroundBlur_152_193"/>
</filter>
<filter id="filter32_f_152_193" x="-216.545" y="-280.031" width="1178.35" height="1050.73" filterUnits="userSpaceOnUse" color-interpolation-filters="sRGB">
<feFlood flood-opacity="0" result="BackgroundImageFix"/>
<feBlend mode="normal" in="SourceGraphic" in2="BackgroundImageFix" result="shape"/>
<feGaussianBlur stdDeviation="200" result="effect1_foregroundBlur_152_193"/>
</filter>
<filter id="filter33_f_152_193" x="1181.31" y="1447.49" width="1353.64" height="1120.61" filterUnits="userSpaceOnUse" color-interpolation-filters="sRGB">
<feFlood flood-opacity="0" result="BackgroundImageFix"/>
<feBlend mode="normal" in="SourceGraphic" in2="BackgroundImageFix" result="shape"/>
<feGaussianBlur stdDeviation="200" result="effect1_foregroundBlur_152_193"/>
</filter>
<filter id="filter34_f_152_193" x="1032.09" y="1435.95" width="1076.71" height="1160.58" filterUnits="userSpaceOnUse" color-interpolation-filters="sRGB">
<feFlood flood-opacity="0" result="BackgroundImageFix"/>
<feBlend mode="normal" in="SourceGraphic" in2="BackgroundImageFix" result="shape"/>
<feGaussianBlur stdDeviation="200" result="effect1_foregroundBlur_152_193"/>
</filter>
<filter id="filter35_f_152_193" x="1216.25" y="1868.01" width="812.139" height="727.064" filterUnits="userSpaceOnUse" color-interpolation-filters="sRGB">
<feFlood flood-opacity="0" result="BackgroundImageFix"/>
<feBlend mode="normal" in="SourceGraphic" in2="BackgroundImageFix" result="shape"/>
<feGaussianBlur stdDeviation="150" result="effect1_foregroundBlur_152_193"/>
</filter>
<filter id="filter36_f_152_193" x="1443.63" y="1979.37" width="585.409" height="561.807" filterUnits="userSpaceOnUse" color-interpolation-filters="sRGB">
<feFlood flood-opacity="0" result="BackgroundImageFix"/>
<feBlend mode="normal" in="SourceGraphic" in2="BackgroundImageFix" result="shape"/>
<feGaussianBlur stdDeviation="100" result="effect1_foregroundBlur_152_193"/>
</filter>
<filter id="filter37_f_152_193" x="1428.74" y="1804.89" width="852.426" height="794.783" filterUnits="userSpaceOnUse" color-interpolation-filters="sRGB">
<feFlood flood-opacity="0" result="BackgroundImageFix"/>
<feBlend mode="normal" in="SourceGraphic" in2="BackgroundImageFix" result="shape"/>
<feGaussianBlur stdDeviation="150" result="effect1_foregroundBlur_152_193"/>
</filter>
<filter id="filter38_f_152_193" x="1538.23" y="1670.77" width="1065.77" height="1053.21" filterUnits="userSpaceOnUse" color-interpolation-filters="sRGB">
<feFlood flood-opacity="0" result="BackgroundImageFix"/>
<feBlend mode="normal" in="SourceGraphic" in2="BackgroundImageFix" result="shape"/>
<feGaussianBlur stdDeviation="200" result="effect1_foregroundBlur_152_193"/>
</filter>
<filter id="filter39_f_152_193" x="98.8989" y="1713.31" width="1120.61" height="1353.64" filterUnits="userSpaceOnUse" color-interpolation-filters="sRGB">
<feFlood flood-opacity="0" result="BackgroundImageFix"/>
<feBlend mode="normal" in="SourceGraphic" in2="BackgroundImageFix" result="shape"/>
<feGaussianBlur stdDeviation="200" result="effect1_foregroundBlur_152_193"/>
</filter>
<filter id="filter40_f_152_193" x="70.4712" y="1564.09" width="1160.58" height="1076.71" filterUnits="userSpaceOnUse" color-interpolation-filters="sRGB">
<feFlood flood-opacity="0" result="BackgroundImageFix"/>
<feBlend mode="normal" in="SourceGraphic" in2="BackgroundImageFix" result="shape"/>
<feGaussianBlur stdDeviation="200" result="effect1_foregroundBlur_152_193"/>
</filter>
<filter id="filter41_f_152_193" x="71.9243" y="1748.25" width="727.064" height="812.139" filterUnits="userSpaceOnUse" color-interpolation-filters="sRGB">
<feFlood flood-opacity="0" result="BackgroundImageFix"/>
<feBlend mode="normal" in="SourceGraphic" in2="BackgroundImageFix" result="shape"/>
<feGaussianBlur stdDeviation="150" result="effect1_foregroundBlur_152_193"/>
</filter>
<filter id="filter42_f_152_193" x="125.827" y="1975.63" width="561.807" height="585.409" filterUnits="userSpaceOnUse" color-interpolation-filters="sRGB">
<feFlood flood-opacity="0" result="BackgroundImageFix"/>
<feBlend mode="normal" in="SourceGraphic" in2="BackgroundImageFix" result="shape"/>
<feGaussianBlur stdDeviation="100" result="effect1_foregroundBlur_152_193"/>
</filter>
<filter id="filter43_f_152_193" x="67.3281" y="1960.74" width="794.783" height="852.426" filterUnits="userSpaceOnUse" color-interpolation-filters="sRGB">
<feFlood flood-opacity="0" result="BackgroundImageFix"/>
<feBlend mode="normal" in="SourceGraphic" in2="BackgroundImageFix" result="shape"/>
<feGaussianBlur stdDeviation="150" result="effect1_foregroundBlur_152_193"/>
</filter>
<filter id="filter44_f_152_193" x="-56.9814" y="2070.23" width="1053.21" height="1065.77" filterUnits="userSpaceOnUse" color-interpolation-filters="sRGB">
<feFlood flood-opacity="0" result="BackgroundImageFix"/>
<feBlend mode="normal" in="SourceGraphic" in2="BackgroundImageFix" result="shape"/>
<feGaussianBlur stdDeviation="200" result="effect1_foregroundBlur_152_193"/>
</filter>
<linearGradient id="paint0_linear_152_193" x1="960" y1="0" x2="960" y2="2364" gradientUnits="userSpaceOnUse">
<stop offset="0.21875" stop-color="#0E1636"/>
<stop offset="0.427083" stop-color="#0E0E36" stop-opacity="0.83"/>
<stop offset="0.729167" stop-color="#0E0E4F" stop-opacity="0.56"/>
<stop offset="0.995408" stop-color="#4E4E92" stop-opacity="0.794109"/>
</linearGradient>
<clipPath id="clip0_152_193">
<rect width="1920" height="2364" fill="white"/>
</clipPath>
</defs>
</svg>
