<svg width="26" height="24" viewBox="0 0 26 24" fill="none" xmlns="http://www.w3.org/2000/svg">
<path d="M10.504 10.632C10.569 10.236 10.712 9.888 10.894 9.588C11.076 9.288 11.336 9.036 11.661 8.844C11.973 8.664 12.363 8.58 12.844 8.568C13.143 8.58 13.416 8.628 13.663 8.724C13.923 8.832 14.157 8.976 14.339 9.156C14.521 9.336 14.664 9.552 14.781 9.792C14.898 10.032 14.95 10.296 14.963 10.56H17.29C17.264 9.996 17.147 9.48 16.926 9.012C16.705 8.544 16.406 8.136 16.016 7.8C15.626 7.464 15.158 7.2 14.612 7.008C14.066 6.816 13.468 6.732 12.805 6.732C11.96 6.732 11.219 6.864 10.595 7.14C9.971 7.416 9.451 7.776 9.035 8.244C8.619 8.712 8.307 9.252 8.112 9.876C7.917 10.5 7.8 11.148 7.8 11.844V12.168C7.8 12.864 7.904 13.512 8.099 14.136C8.294 14.76 8.606 15.3 9.022 15.756C9.438 16.212 9.958 16.584 10.582 16.848C11.206 17.112 11.947 17.256 12.792 17.256C13.403 17.256 13.975 17.16 14.508 16.98C15.041 16.8 15.509 16.548 15.912 16.224C16.315 15.9 16.64 15.528 16.874 15.096C17.108 14.664 17.251 14.208 17.264 13.716H14.937C14.924 13.968 14.859 14.196 14.742 14.412C14.625 14.628 14.469 14.808 14.274 14.964C14.079 15.12 13.858 15.24 13.598 15.324C13.351 15.408 13.091 15.432 12.818 15.444C12.35 15.432 11.96 15.348 11.661 15.168C11.336 14.976 11.076 14.724 10.894 14.424C10.712 14.124 10.569 13.764 10.504 13.368C10.439 12.972 10.4 12.564 10.4 12.168V11.844C10.4 11.424 10.439 11.028 10.504 10.632ZM13 0C5.824 0 0 5.376 0 12C0 18.624 5.824 24 13 24C20.176 24 26 18.624 26 12C26 5.376 20.176 0 13 0ZM13 21.6C7.267 21.6 2.6 17.292 2.6 12C2.6 6.708 7.267 2.4 13 2.4C18.733 2.4 23.4 6.708 23.4 12C23.4 17.292 18.733 21.6 13 21.6Z" fill="white"/>
</svg>
