<svg width="126" height="126" viewBox="0 0 126 126" fill="none" xmlns="http://www.w3.org/2000/svg">
<circle cx="63" cy="63" r="63" fill="#0F0E36" fill-opacity="0.4"/>
<path d="M79.625 72.5H75.8725L74.5425 71.2175C79.1975 65.8025 82 58.7725 82 51.125C82 34.0725 68.1775 20.25 51.125 20.25C34.0725 20.25 20.25 34.0725 20.25 51.125C20.25 68.1775 34.0725 82 51.125 82C58.7725 82 65.8025 79.1975 71.2175 74.5425L72.5 75.8725V79.625L96.25 103.327L103.327 96.25L79.625 72.5ZM51.125 72.5C39.2975 72.5 29.75 62.9525 29.75 51.125C29.75 39.2975 39.2975 29.75 51.125 29.75C62.9525 29.75 72.5 39.2975 72.5 51.125C72.5 62.9525 62.9525 72.5 51.125 72.5Z" fill="white"/>
</svg>
