<svg width="87" height="87" viewBox="0 0 87 87" fill="none" xmlns="http://www.w3.org/2000/svg">
<path d="M62.2083 54.8333H58.3242L56.9475 53.5058C61.7658 47.9008 64.6667 40.6242 64.6667 32.7083C64.6667 15.0575 50.3592 0.75 32.7083 0.75C15.0575 0.75 0.75 15.0575 0.75 32.7083C0.75 50.3592 15.0575 64.6667 32.7083 64.6667C40.6242 64.6667 47.9008 61.7658 53.5058 56.9475L54.8333 58.3242V62.2083L79.4167 86.7425L86.7425 79.4167L62.2083 54.8333ZM32.7083 54.8333C20.4658 54.8333 10.5833 44.9508 10.5833 32.7083C10.5833 20.4658 20.4658 10.5833 32.7083 10.5833C44.9508 10.5833 54.8333 20.4658 54.8333 32.7083C54.8333 44.9508 44.9508 54.8333 32.7083 54.8333Z" fill="white"/>
</svg>
