<svg width="24" height="24" viewBox="0 0 24 24" fill="none" xmlns="http://www.w3.org/2000/svg">
<path d="M4.82667 10.2155C6.74667 13.8113 9.84 16.7463 13.6133 18.5887L16.5467 15.7934C16.9067 15.4503 17.44 15.336 17.9067 15.4884C19.4 15.9586 21.0133 16.2127 22.6667 16.2127C23.4 16.2127 24 16.7844 24 17.4833V21.9176C24 22.6164 23.4 23.1882 22.6667 23.1882C10.1467 23.1882 0 13.519 0 1.58821C0 0.889391 0.6 0.317627 1.33333 0.317627H6C6.73333 0.317627 7.33333 0.889391 7.33333 1.58821C7.33333 3.17645 7.6 4.70115 8.09333 6.12421C8.24 6.56892 8.13333 7.06445 7.76 7.42021L4.82667 10.2155Z" fill="white"/>
</svg>
